<mxfile host="app.diagrams.net" agent="Mozilla/5.0 (Windows NT 10.0; Win64; x64) AppleWebKit/537.36 (KHTML, like Gecko) Chrome/133.0.0.0 Safari/537.36" version="26.1.0">
  <diagram name="PÃ¡gina-1" id="rvuobKmiCsxLBLz2KXEZ">
    <mxGraphModel dx="1050" dy="617" grid="1" gridSize="10" guides="1" tooltips="1" connect="1" arrows="1" fold="1" page="1" pageScale="1" pageWidth="827" pageHeight="1169" math="0" shadow="0">
      <root>
        <mxCell id="0" />
        <mxCell id="1" parent="0" />
        <mxCell id="_37ahqFNqv8ny6RKii_A-10" value="" style="edgeStyle=orthogonalEdgeStyle;rounded=0;orthogonalLoop=1;jettySize=auto;html=1;" edge="1" parent="1" source="_37ahqFNqv8ny6RKii_A-1" target="_37ahqFNqv8ny6RKii_A-6">
          <mxGeometry relative="1" as="geometry" />
        </mxCell>
        <mxCell id="_37ahqFNqv8ny6RKii_A-1" value="Inicio" style="strokeWidth=2;html=1;shape=mxgraph.flowchart.start_1;whiteSpace=wrap;fillColor=#d5e8d4;strokeColor=#82b366;" vertex="1" parent="1">
          <mxGeometry x="364" y="20" width="100" height="60" as="geometry" />
        </mxCell>
        <mxCell id="_37ahqFNqv8ny6RKii_A-5" style="edgeStyle=orthogonalEdgeStyle;rounded=0;orthogonalLoop=1;jettySize=auto;html=1;exitX=0.5;exitY=1;exitDx=0;exitDy=0;" edge="1" parent="1">
          <mxGeometry relative="1" as="geometry">
            <mxPoint x="414" y="200" as="sourcePoint" />
            <mxPoint x="414" y="200" as="targetPoint" />
          </mxGeometry>
        </mxCell>
        <mxCell id="_37ahqFNqv8ny6RKii_A-11" value="" style="edgeStyle=orthogonalEdgeStyle;rounded=0;orthogonalLoop=1;jettySize=auto;html=1;" edge="1" parent="1" source="_37ahqFNqv8ny6RKii_A-6" target="_37ahqFNqv8ny6RKii_A-7">
          <mxGeometry relative="1" as="geometry" />
        </mxCell>
        <mxCell id="_37ahqFNqv8ny6RKii_A-6" value="WS-BASE&lt;div&gt;WS-ALTURA&lt;/div&gt;&lt;div&gt;WS-AREA&lt;/div&gt;" style="rounded=1;whiteSpace=wrap;html=1;absoluteArcSize=1;arcSize=14;strokeWidth=2;fillColor=#f5f5f5;fontColor=#333333;strokeColor=#666666;" vertex="1" parent="1">
          <mxGeometry x="364" y="110" width="100" height="100" as="geometry" />
        </mxCell>
        <mxCell id="_37ahqFNqv8ny6RKii_A-12" value="" style="edgeStyle=orthogonalEdgeStyle;rounded=0;orthogonalLoop=1;jettySize=auto;html=1;" edge="1" parent="1" source="_37ahqFNqv8ny6RKii_A-7" target="_37ahqFNqv8ny6RKii_A-9">
          <mxGeometry relative="1" as="geometry" />
        </mxCell>
        <mxCell id="_37ahqFNqv8ny6RKii_A-7" value="&lt;div&gt;&lt;br&gt;&lt;/div&gt;WS-BASE" style="html=1;strokeWidth=2;shape=manualInput;whiteSpace=wrap;rounded=1;size=26;arcSize=11;fillColor=#dae8fc;strokeColor=#6c8ebf;" vertex="1" parent="1">
          <mxGeometry x="364" y="240" width="100" height="60" as="geometry" />
        </mxCell>
        <mxCell id="_37ahqFNqv8ny6RKii_A-14" value="" style="edgeStyle=orthogonalEdgeStyle;rounded=0;orthogonalLoop=1;jettySize=auto;html=1;" edge="1" parent="1" source="_37ahqFNqv8ny6RKii_A-9" target="_37ahqFNqv8ny6RKii_A-13">
          <mxGeometry relative="1" as="geometry" />
        </mxCell>
        <mxCell id="_37ahqFNqv8ny6RKii_A-9" value="&lt;div&gt;&lt;br&gt;&lt;/div&gt;WS-ALTURA" style="html=1;strokeWidth=2;shape=manualInput;whiteSpace=wrap;rounded=1;size=26;arcSize=11;fillColor=#dae8fc;strokeColor=#6c8ebf;" vertex="1" parent="1">
          <mxGeometry x="364" y="330" width="100" height="60" as="geometry" />
        </mxCell>
        <mxCell id="_37ahqFNqv8ny6RKii_A-16" value="" style="edgeStyle=orthogonalEdgeStyle;rounded=0;orthogonalLoop=1;jettySize=auto;html=1;" edge="1" parent="1" source="_37ahqFNqv8ny6RKii_A-13" target="_37ahqFNqv8ny6RKii_A-15">
          <mxGeometry relative="1" as="geometry" />
        </mxCell>
        <mxCell id="_37ahqFNqv8ny6RKii_A-13" value="WS-AREA = WS-BASE * WS-ALTURA" style="rounded=1;whiteSpace=wrap;html=1;absoluteArcSize=1;arcSize=14;strokeWidth=2;fillColor=#f5f5f5;fontColor=#333333;strokeColor=#666666;" vertex="1" parent="1">
          <mxGeometry x="296" y="420" width="236" height="60" as="geometry" />
        </mxCell>
        <mxCell id="_37ahqFNqv8ny6RKii_A-18" value="" style="edgeStyle=orthogonalEdgeStyle;rounded=0;orthogonalLoop=1;jettySize=auto;html=1;" edge="1" parent="1" source="_37ahqFNqv8ny6RKii_A-15" target="_37ahqFNqv8ny6RKii_A-17">
          <mxGeometry relative="1" as="geometry" />
        </mxCell>
        <mxCell id="_37ahqFNqv8ny6RKii_A-15" value="WS-AREA" style="strokeWidth=2;html=1;shape=mxgraph.flowchart.display;whiteSpace=wrap;fillColor=#e1d5e7;strokeColor=#9673a6;" vertex="1" parent="1">
          <mxGeometry x="364" y="510" width="100" height="60" as="geometry" />
        </mxCell>
        <mxCell id="_37ahqFNqv8ny6RKii_A-17" value="Fim" style="strokeWidth=2;html=1;shape=mxgraph.flowchart.start_1;whiteSpace=wrap;fillColor=#d5e8d4;strokeColor=#82b366;" vertex="1" parent="1">
          <mxGeometry x="364" y="600" width="100" height="60" as="geometry" />
        </mxCell>
      </root>
    </mxGraphModel>
  </diagram>
</mxfile>
